<svg width="43" height="43" viewBox="0 0 43 43" fill="none" xmlns="http://www.w3.org/2000/svg">
<path d="M11.2158 38.3203H10.75C9.06042 38.3203 8.21654 38.3203 7.69158 37.7953C7.16663 37.274 7.16663 36.4283 7.16663 34.7387V32.7464C7.16663 31.8183 7.16663 31.3543 7.40492 30.9386C7.64321 30.523 8.00333 30.3151 8.72358 29.8959C13.4643 27.1385 20.1956 25.5869 24.6873 28.2655C24.9895 28.4458 25.2583 28.6656 25.4936 28.9248C25.7347 29.1883 25.9204 29.4975 26.0399 29.834C26.1593 30.1706 26.21 30.5277 26.189 30.8842C26.1679 31.2407 26.0755 31.5894 25.9173 31.9096C25.7591 32.2297 25.5382 32.5149 25.2678 32.7482C25.0524 32.9527 24.7895 33.1005 24.5028 33.1782C24.7178 33.1531 24.9238 33.1251 25.1209 33.094C26.7531 32.8342 28.1237 31.9599 29.3779 31.0121L32.6173 28.5665C33.1955 28.1469 33.8916 27.9209 34.606 27.9209C35.3204 27.9209 36.0165 28.1469 36.5947 28.5665C37.6214 29.3422 37.9367 30.6197 37.2863 31.6625C36.5285 32.8772 35.4606 34.4306 34.4358 35.3802C33.411 36.3297 31.8809 37.179 30.6339 37.781C29.2507 38.4493 27.7242 38.8327 26.1708 39.0853C23.0211 39.5942 19.7388 39.5153 16.6213 38.8739C14.8427 38.5078 13.0316 38.3211 11.2158 38.3203ZM11.7999 4.63337C11.1423 5.29092 10.8969 6.1975 10.8055 7.61471C11.8558 7.60033 12.8589 7.1766 13.6015 6.43372C14.344 5.69084 14.7673 4.68747 14.7812 3.63721C13.3658 3.73037 12.4574 3.97583 11.7999 4.63337ZM31.2 4.63337C30.5425 3.97583 29.6359 3.73037 28.2187 3.639C28.2331 4.68926 28.6568 5.69243 29.3997 6.43498C30.1426 7.17752 31.1459 7.6008 32.1962 7.61471C32.103 6.19929 31.8576 5.29092 31.2 4.63337ZM31.2 16.8669C30.5425 17.5244 29.6359 17.7699 28.2187 17.8612C28.2331 16.811 28.6568 15.8078 29.3997 15.0653C30.1426 14.3227 31.1459 13.8994 32.1962 13.8855C32.103 15.301 31.8576 16.2093 31.2 16.8669ZM11.7999 16.8669C12.4574 17.5244 13.364 17.7699 14.7812 17.8612C14.7668 16.811 14.3431 15.8078 13.6002 15.0653C12.8573 14.3227 11.854 13.8994 10.8037 13.8855C10.8969 15.301 11.1423 16.2093 11.7999 16.8669Z" fill="#4ECB71"/>
<path fill-rule="evenodd" clip-rule="evenodd" d="M10.75 10.3022C12.5319 10.3022 14.2409 9.59438 15.5009 8.33437C16.7609 7.07436 17.4688 5.36542 17.4688 3.5835H25.5312C25.5312 5.36542 26.2391 7.07436 27.4991 8.33437C28.7591 9.59438 30.4681 10.3022 32.25 10.3022V11.1981C30.4681 11.1981 28.7591 11.9059 27.4991 13.166C26.2391 14.426 25.5312 16.1349 25.5312 17.9168H17.4688C17.4688 16.1349 16.7609 14.426 15.5009 13.166C14.2409 11.9059 12.5319 11.1981 10.75 11.1981V10.3022ZM21.5 12.5418C21.9752 12.5418 22.4309 12.3531 22.7669 12.0171C23.1029 11.6811 23.2917 11.2253 23.2917 10.7502C23.2917 10.275 23.1029 9.81927 22.7669 9.48326C22.4309 9.14726 21.9752 8.9585 21.5 8.9585C21.0248 8.9585 20.5691 9.14726 20.2331 9.48326C19.8971 9.81927 19.7083 10.275 19.7083 10.7502C19.7083 11.2253 19.8971 11.6811 20.2331 12.0171C20.5691 12.3531 21.0248 12.5418 21.5 12.5418Z" fill="#4ECB71"/>
</svg>
