<svg width="43" height="43" viewBox="0 0 43 43" fill="none" xmlns="http://www.w3.org/2000/svg">
<g clip-path="url(#clip0_597_302)">
<path d="M30.6733 17.7017C29.666 16.6943 28.2997 16.1283 26.875 16.1283C25.4503 16.1283 24.084 16.6943 23.0767 17.7017C22.0693 18.709 21.5033 20.0753 21.5033 21.5C21.5033 22.9247 22.0693 24.291 23.0767 25.2983C23.5755 25.7971 24.1676 26.1928 24.8194 26.4628C25.4711 26.7327 26.1696 26.8717 26.875 26.8717C27.5804 26.8717 28.2789 26.7327 28.9306 26.4628C29.5824 26.1928 30.1745 25.7971 30.6733 25.2983C31.1721 24.7995 31.5678 24.2074 31.8378 23.5556C32.1077 22.9039 32.2467 22.2054 32.2467 21.5C32.2467 20.7946 32.1077 20.0961 31.8378 19.4444C31.5678 18.7926 31.1721 18.2005 30.6733 17.7017ZM12.5417 10.75V32.25H41.2083V10.75H12.5417ZM37.625 25.0833C36.6754 25.0833 35.7617 25.4596 35.0988 26.1404C34.4179 26.8033 34.0417 27.7171 34.0417 28.6667H19.7083C19.7083 27.7171 19.3321 26.8033 18.6513 26.1404C17.9883 25.4596 17.0746 25.0833 16.125 25.0833V17.9167C17.0746 17.9167 17.9883 17.5404 18.6513 16.8596C19.3321 16.1967 19.7083 15.2829 19.7083 14.3333H34.0417C34.0417 15.2829 34.4179 16.1967 35.0988 16.8596C35.7617 17.5404 36.6754 17.9167 37.625 17.9167V25.0833ZM8.95833 14.3333H5.375C4.38958 14.3333 3.58333 13.5271 3.58333 12.5417C3.58333 11.5562 4.38958 10.75 5.375 10.75H8.95833V14.3333ZM8.95833 23.2917H3.58333C2.59792 23.2917 1.79167 22.4854 1.79167 21.5C1.79167 20.5146 2.59792 19.7083 3.58333 19.7083H8.95833V23.2917ZM8.95833 32.25H1.79167C0.802667 32.25 0 31.4438 0 30.4583C0 29.4729 0.802667 28.6667 1.79167 28.6667H8.95833V32.25Z" fill="#4ECB71"/>
</g>
<defs>
<clipPath id="clip0_597_302">
<rect width="43" height="43" fill="white"/>
</clipPath>
</defs>
</svg>
