<svg width="30" height="30" viewBox="0 0 30 30" fill="none" xmlns="http://www.w3.org/2000/svg">
<path d="M15 21.6667C14.0833 21.6667 13.2989 21.3406 12.6467 20.6883C11.9944 20.0361 11.6678 19.2511 11.6667 18.3333C11.6656 17.4156 11.9922 16.6311 12.6467 15.98C13.3011 15.3289 14.0856 15.0022 15 15C15.9144 14.9978 16.6994 15.3244 17.355 15.98C18.0106 16.6356 18.3367 17.42 18.3333 18.3333C18.33 19.2467 18.0039 20.0317 17.355 20.6883C16.7061 21.345 15.9211 21.6711 15 21.6667ZM7.29167 6.66667H22.7083L24.8333 2.41667C25.1111 1.86111 25.09 1.31944 24.77 0.791667C24.45 0.263889 23.9711 0 23.3333 0H6.66667C6.02778 0 5.54889 0.263889 5.23 0.791667C4.91111 1.31944 4.89 1.86111 5.16667 2.41667L7.29167 6.66667ZM9 30H21C23.5 30 25.625 29.1322 27.375 27.3967C29.125 25.6611 30 23.5289 30 21C30 19.9444 29.8194 18.9167 29.4583 17.9167C29.0972 16.9167 28.5833 16.0139 27.9167 15.2083L23.5833 10H6.41667L2.08333 15.2083C1.41667 16.0139 0.902778 16.9167 0.541667 17.9167C0.180556 18.9167 0 19.9444 0 21C0 23.5278 0.868334 25.66 2.605 27.3967C4.34167 29.1333 6.47333 30.0011 9 30Z" fill="#4ECB71"/>
</svg>
